<svg width="126" height="126" viewBox="0 0 126 126" fill="none" xmlns="http://www.w3.org/2000/svg">
<g clip-path="url(#clip0_761_672)">
<path d="M97.3857 66.9398C97.5627 86.0078 114.113 92.3531 114.297 92.4339C114.157 92.8812 111.652 101.476 105.577 110.354C100.325 118.03 94.8748 125.678 86.2887 125.836C77.8519 125.991 75.1391 120.833 65.4935 120.833C55.8508 120.833 52.8367 125.678 44.8503 125.992C36.5625 126.306 30.2512 117.692 24.9562 110.044C14.1359 94.4007 5.86702 65.8399 16.9701 46.5608C22.4858 36.9868 32.3429 30.9241 43.0419 30.7686C51.1803 30.6134 58.8618 36.2439 63.8371 36.2439C68.8093 36.2439 78.144 29.4727 87.9574 30.4671C92.0656 30.6381 103.598 32.1266 111.002 42.9656C110.406 43.3354 97.2426 50.9985 97.3857 66.9398ZM81.5298 20.1178C85.9298 14.7917 88.8913 7.37729 88.0834 0C81.741 0.254909 74.0717 4.22636 69.5225 9.54953C65.4455 14.2634 61.875 21.8083 62.8384 29.0396C69.9077 29.5866 77.1295 25.4473 81.5298 20.1178Z" fill="black"/>
</g>
<defs>
<clipPath id="clip0_761_672">
<rect width="126" height="126" fill="white"/>
</clipPath>
</defs>
</svg>
