<svg width="144" height="144" viewBox="0 0 144 144" fill="none" xmlns="http://www.w3.org/2000/svg">
<path fill-rule="evenodd" clip-rule="evenodd" d="M12 21.9382C12 12.9081 21.598 7.11345 29.5889 11.3192L124.706 61.3811C133.255 65.8799 133.255 78.1199 124.706 82.6193L29.589 132.681C21.5981 136.887 12 131.092 12 122.062V21.9382ZM119.117 71.9999L97.6092 60.6797L85.3458 71.9999L97.6092 83.3201L119.117 71.9999ZM86.3418 89.2505L76.5 80.1653L40.5469 113.353L86.3418 89.2505ZM76.5 63.8345L86.3418 54.7498L40.5469 30.6471L76.5 63.8345ZM24 31.704L67.6542 71.9999L24 112.296V31.704Z" fill="black"/>
</svg>
